# Blender v2.72 (sub 0) OBJ File: 'Mira.blend'
# www.blender.org
v 0.243215 -6.389311 1.814614
v -0.261291 -6.389311 1.814614
v 0.243215 -6.389311 4.482078
v -0.003761 -6.389311 1.578706
v -0.005971 -6.389311 1.578706
v -0.261291 -6.389311 4.482078
v -0.000002 -6.382148 -4.991454
v 0.973783 -6.382148 -4.895544
v 1.910145 -6.382148 -4.611502
v 2.773102 -6.382148 -4.150242
v 3.529490 -6.382148 -3.529490
v 4.150241 -6.382148 -2.773103
v 4.611501 -6.382148 -1.910146
v 4.895543 -6.382148 -0.973784
v 4.991453 -6.382148 0.000000
v 4.895544 -6.382148 0.973785
v 4.611501 -6.382148 1.910147
v 4.150241 -6.382148 2.773104
v 3.529490 -6.382148 3.529492
v 2.773102 -6.382148 4.150244
v 1.910145 -6.382148 4.611504
v 0.973782 -6.382148 4.895546
v -0.000003 -6.382148 4.991456
v -0.973788 -6.382148 4.895545
v -1.910151 -6.382148 4.611503
v -2.773108 -6.382148 4.150242
v -3.529495 -6.382148 3.529490
v -4.150247 -6.382148 2.773102
v -4.611506 -6.382148 1.910144
v -4.895548 -6.382148 0.973781
v -4.991457 -6.382148 -0.000004
v -4.895546 -6.382148 -0.973789
v -4.611503 -6.382148 -1.910151
v -4.150241 -6.382148 -2.773108
v -3.529489 -6.382148 -3.529495
v -2.773100 -6.382148 -4.150246
v -1.910142 -6.382148 -4.611505
v -0.973779 -6.382148 -4.895545
v -0.000002 -6.390230 -4.439000
v 0.863014 -6.390230 -4.354000
v 1.692864 -6.390230 -4.102267
v 2.457659 -6.390230 -3.693476
v 3.128006 -6.390230 -3.143336
v 3.678147 -6.390230 -2.472988
v 4.086937 -6.390230 -1.708194
v 4.338670 -6.390230 -0.878344
v 4.423669 -6.390230 -0.015328
v 4.338670 -6.390230 0.847687
v 4.086937 -6.390230 1.677537
v 3.678147 -6.390230 2.442332
v 3.128006 -6.390230 3.112680
v 2.457658 -6.390230 3.662820
v 1.692863 -6.390230 4.071612
v 0.863013 -6.390230 4.323344
v -0.000003 -6.390230 4.408343
v -0.863019 -6.390230 4.323343
v -1.692869 -6.390230 4.071610
v -2.457664 -6.390230 3.662819
v -3.128012 -6.390230 3.112678
v -3.678152 -6.390230 2.442330
v -4.086943 -6.390230 1.677534
v -4.338674 -6.390230 0.847683
v -4.423673 -6.390230 -0.015332
v -4.338673 -6.390230 -0.878348
v -4.086939 -6.390230 -1.708198
v -3.678147 -6.390230 -2.472993
v -3.128006 -6.390230 -3.143340
v -2.457657 -6.390230 -3.693480
v -1.692861 -6.390230 -4.102270
v -0.863010 -6.390230 -4.354001
v 1.789968 -6.389311 -0.273273
v 1.789350 -6.389311 0.231232
v 4.457429 -6.389311 -0.270003
v 1.553758 -6.389311 -0.026587
v 1.553755 -6.389311 -0.024377
v 4.456811 -6.389311 0.234502
v -1.817384 -6.389311 0.260216
v -1.816939 -6.389311 -0.244290
v -4.484848 -6.389311 0.257859
v -1.581259 -6.389311 0.013449
v -1.581256 -6.389311 0.011238
v -4.484402 -6.389311 -0.246647
v -0.264170 -6.389311 -1.836319
v 0.240336 -6.389311 -1.835936
v -0.262143 -6.389311 -4.503782
v -0.017373 -6.389311 -1.600224
v -0.015163 -6.389311 -1.600222
v 0.242363 -6.389311 -4.503398
vt 1.000000 0.000000
vt 1.000000 1.000000
vt 0.000000 1.000000
vt 0.933013 0.750000
vt 0.933013 0.250000
vt 0.500000 0.000000
vt 0.005766 0.424286
vt 0.999358 0.474675
vt 0.994234 0.424286
vt 0.000000 0.000000
vt 0.500000 1.000000
vt 0.066987 0.750000
vt 0.399351 0.989765
vt 0.449416 0.997435
vt 0.257349 0.937174
vt 0.697178 0.959479
vt 0.214366 0.910382
vt 0.066987 0.250000
vt 0.174314 0.879379
vt 0.785634 0.910382
vt 0.137604 0.844484
vt 0.000642 0.525325
vt 0.994234 0.575714
vt 0.000642 0.474676
vt 0.015962 0.625327
vt 0.968876 0.673653
vt 0.005766 0.575714
vt 0.825686 0.879379
vt 0.051098 0.720197
vt 0.924322 0.764482
vt 0.031124 0.673653
vt 0.104612 0.806053
vt 0.862396 0.844483
vt 0.075678 0.764482
vt 0.999358 0.525324
vt 0.984038 0.374674
vt 0.015961 0.374674
vt 0.968876 0.326347
vt 0.948902 0.279803
vt 0.051098 0.279803
vt 0.924322 0.235518
vt 0.895388 0.193947
vt 0.104612 0.193947
vt 0.862396 0.155516
vt 0.825686 0.120621
vt 0.174313 0.120621
vt 0.785634 0.089618
vt 0.742651 0.062827
vt 0.257349 0.062827
vt 0.697178 0.040521
vt 0.649681 0.022930
vt 0.350318 0.022930
vt 0.550584 0.002565
vt 0.449416 0.002565
vt 0.550584 0.997435
vt 0.600649 0.010235
vt 0.600649 0.989765
vt 0.350319 0.977070
vt 0.399350 0.010235
vt 0.031124 0.326348
vt 0.649682 0.977070
vt 0.948902 0.720197
vt 0.302822 0.040521
vt 0.075678 0.235518
vt 0.302823 0.959479
vt 0.742651 0.937173
vt 0.214366 0.089618
vt 0.137603 0.155517
vt 0.895388 0.806053
vt 0.984039 0.625326
vn 0.000000 1.000000 0.000000
vn -0.001400 -0.999900 0.013900
vn -0.004300 -0.999900 -0.014100
vn 0.000000 1.000000 -0.000500
vn 0.000000 1.000000 0.000500
vn 0.001400 -0.999900 0.013900
vn 0.004000 -0.999900 0.013300
vn 0.012500 -0.999900 0.006700
vn 0.014200 -0.999900 0.001400
vn 0.001400 -0.999900 -0.014600
vn 0.006900 -0.999900 -0.012900
vn 0.011200 -0.999900 -0.009200
vn 0.013800 -0.999900 -0.004200
vn -0.001400 -0.999900 -0.014600
vn -0.006900 -0.999900 -0.012900
vn -0.011200 -0.999900 -0.009200
vn -0.013800 -0.999900 -0.004200
vn -0.014200 -0.999900 0.001400
vn -0.012500 -0.999900 0.006700
vn -0.008900 -0.999900 0.010800
vn -0.004000 -0.999900 0.013300
vn 0.006600 -0.999900 0.012300
vn -0.006600 -0.999900 0.012300
vn 0.010900 -0.999900 0.008900
vn 0.009300 -0.999900 -0.011300
vn -0.010900 -0.999900 0.008900
vn 0.013600 -0.999900 0.004100
vn -0.012800 -0.999900 -0.006800
vn -0.013600 -0.999900 0.004100
vn 0.008900 -0.999900 0.010800
vn 0.014300 -0.999900 -0.001400
vn -0.014300 -0.999900 -0.001400
vn 0.012800 -0.999900 -0.006800
vn -0.009300 -0.999900 -0.011300
vn 0.004300 -0.999900 -0.014000
vn -0.004300 -0.999900 -0.014000
vn 0.004300 -0.999900 -0.014100
s off
f 1/1/1 2/2/1 6/3/1
f 4/1/1 5/2/1 2/3/1
f 24/4/2 56/5/2 55/6/2
f 38/7/3 70/8/3 69/9/3
f 71/1/1 72/2/1 76/3/1
f 74/1/4 75/2/4 72/3/4
f 77/1/1 78/2/1 82/3/1
f 80/1/1 81/2/1 78/3/1
f 85/10/1 83/1/1 84/2/1
f 86/1/5 87/2/5 84/3/5
f 3/10/1 1/1/1 6/3/1
f 1/10/1 4/1/1 2/3/1
f 23/11/6 55/6/6 22/12/6
f 21/13/7 22/14/7 54/11/7
f 18/15/8 50/16/8 17/17/8
f 23/11/2 24/4/2 55/6/2
f 55/6/6 54/18/6 22/12/6
f 16/19/9 48/20/9 15/21/9
f 8/22/10 40/23/10 7/24/10
f 10/25/11 42/26/11 9/27/11
f 48/20/9 47/28/9 15/21/9
f 12/29/12 44/30/12 11/31/12
f 14/32/13 46/33/13 13/34/13
f 39/35/14 70/8/14 7/24/14
f 69/9/15 68/36/15 37/37/15
f 67/38/16 66/39/16 35/40/16
f 65/41/17 64/42/17 33/43/17
f 63/44/18 62/45/18 31/46/18
f 61/47/19 60/48/19 29/49/19
f 59/50/20 58/51/20 27/52/20
f 56/53/21 24/6/21 25/54/21
f 21/13/7 54/11/7 53/55/7
f 57/56/21 56/53/21 25/54/21
f 52/57/22 20/58/22 53/55/22
f 25/54/23 26/59/23 57/56/23
f 58/51/20 26/59/20 27/52/20
f 68/36/15 36/60/15 37/37/15
f 50/16/24 18/15/24 51/61/24
f 10/25/25 11/31/25 43/62/25
f 27/52/26 28/63/26 59/50/26
f 66/39/16 34/64/16 35/40/16
f 60/48/19 28/63/19 29/49/19
f 18/15/24 19/65/24 51/61/24
f 48/20/27 16/19/27 49/66/27
f 34/64/28 66/39/28 65/41/28
f 29/49/29 30/67/29 61/47/29
f 20/58/30 52/57/30 19/65/30
f 62/45/18 30/67/18 31/46/18
f 16/19/27 17/17/27 49/66/27
f 64/42/17 32/68/17 33/43/17
f 14/32/31 15/21/31 47/28/31
f 46/33/31 14/32/31 47/28/31
f 31/46/32 32/68/32 63/44/32
f 50/16/8 49/66/8 17/17/8
f 30/67/29 62/45/29 61/47/29
f 32/68/32 64/42/32 63/44/32
f 46/33/13 45/69/13 13/34/13
f 44/30/33 12/29/33 45/69/33
f 33/43/28 34/64/28 65/41/28
f 52/57/30 51/61/30 19/65/30
f 12/29/33 13/34/33 45/69/33
f 28/63/26 60/48/26 59/50/26
f 44/30/12 43/62/12 11/31/12
f 42/26/25 10/25/25 43/62/25
f 35/40/34 36/60/34 67/38/34
f 73/10/1 71/1/1 76/3/1
f 20/58/22 21/13/22 53/55/22
f 36/60/34 68/36/34 67/38/34
f 42/26/11 41/70/11 9/27/11
f 40/23/35 8/22/35 41/70/35
f 37/37/36 38/7/36 69/9/36
f 71/10/1 74/1/1 72/3/1
f 8/22/37 9/27/37 41/70/37
f 70/8/14 38/7/14 7/24/14
f 26/59/23 58/51/23 57/56/23
f 40/23/10 39/35/10 7/24/10
f 79/10/1 77/1/1 82/3/1
f 77/10/1 80/1/1 78/3/1
f 88/3/1 85/10/1 84/2/1
f 83/10/1 86/1/1 84/3/1
